<?xml version="1.0" standalone="no"?>
<!DOCTYPE svg PUBLIC "-//W3C//DTD SVG 20010904//EN"
 "http://www.w3.org/TR/2001/REC-SVG-20010904/DTD/svg10.dtd">
<svg version="1.0" xmlns="http://www.w3.org/2000/svg"
 width="160.000000pt" height="160.000000pt" viewBox="0 0 160.000000 160.000000"
 preserveAspectRatio="xMidYMid meet">
<metadata>
Created by potrace 1.11, written by Peter Selinger 2001-2013
</metadata>
<g transform="translate(0.000000,160.000000) scale(0.100000,-0.100000)"
fill="#000000" stroke="none">
<path d="M353 1087 c-123 -122 -226 -225 -229 -229 -7 -8 200 -218 215 -218 5
0 14 6 20 14 9 11 -8 32 -80 105 -50 50 -89 95 -85 99 3 4 43 44 88 89 l83 83
57 -57 c53 -53 57 -55 74 -39 16 17 14 21 -40 74 l-56 57 89 89 90 89 87 -86
c83 -82 89 -86 106 -70 17 15 13 21 -86 120 -56 56 -105 103 -107 103 -2 0
-104 -100 -226 -223z"/>
<path d="M820 1035 c-15 -18 -15 -19 101 -132 48 -47 99 -107 114 -134 99
-183 -35 -404 -245 -402 -97 1 -144 27 -271 154 -103 104 -108 107 -124 89
-17 -18 -13 -23 86 -121 123 -122 156 -144 234 -162 174 -39 330 47 387 214
23 68 17 173 -14 236 -21 43 -230 273 -248 273 -4 0 -13 -7 -20 -15z"/>
<path d="M1405 376 c-60 -60 -82 -75 -123 -82 -50 -9 -64 -1 -159 88 l-31 30
-12 -22 c-10 -19 -6 -26 32 -64 55 -55 85 -73 128 -80 64 -10 111 11 183 80
37 35 67 68 67 73 0 5 -7 14 -15 21 -12 10 -24 3 -70 -44z"/>
</g>
</svg>
